<svg viewBox="0 0 48 48" fill="none" xmlns="http://www.w3.org/2000/svg">
<path d="M12.8975 23.0928C12.8974 22.8807 12.9393 22.6706 13.0207 22.4747C13.1021 22.2788 13.2214 22.1009 13.3717 21.9513C13.522 21.8016 13.7005 21.6831 13.8967 21.6026C14.093 21.5221 14.3033 21.4812 14.5154 21.4822L17.1977 21.4909C17.6254 21.4909 18.0356 21.6608 18.338 21.9633C18.6404 22.2657 18.8103 22.6759 18.8103 23.1036V33.2465C19.1125 33.157 19.5 33.0615 19.9246 32.9619C20.2193 32.8925 20.482 32.7256 20.6701 32.4883C20.8581 32.2509 20.9605 31.957 20.9605 31.6542V19.0727C20.9605 18.8609 21.0022 18.6512 21.0833 18.4555C21.1643 18.2598 21.2831 18.082 21.4329 17.9322C21.5826 17.7824 21.7604 17.6636 21.9561 17.5826C22.1518 17.5015 22.3615 17.4598 22.5733 17.4597H25.2609C25.6886 17.4598 26.0987 17.6297 26.4012 17.9321C26.7036 18.2345 26.8735 18.6447 26.8736 19.0723V30.75C26.8736 30.75 27.5462 30.4776 28.2019 30.2009C28.4453 30.0979 28.6531 29.9255 28.7992 29.7052C28.9454 29.4849 29.0234 29.2265 29.0236 28.9621V15.0405C29.0236 14.8287 29.0653 14.619 29.1463 14.4234C29.2274 14.2277 29.3461 14.05 29.4959 13.9002C29.6456 13.7505 29.8234 13.6317 30.019 13.5506C30.2146 13.4696 30.4243 13.4279 30.6361 13.4279H33.3238C33.7515 13.4279 34.1616 13.5978 34.4641 13.9002C34.7665 14.2026 34.9365 14.6128 34.9365 15.0405V26.5042C37.2666 24.8155 39.6282 22.7843 41.5022 20.3421C41.7741 19.9875 41.954 19.5712 42.0259 19.1303C42.0978 18.6893 42.0594 18.2374 41.9142 17.8149C40.6462 14.1195 38.2677 10.906 35.104 8.61371C31.9403 6.32141 28.1457 5.06227 24.2392 5.00844C13.705 4.86693 4.99906 13.466 5.00009 24.0015C4.98975 27.3353 5.85985 30.6127 7.52243 33.5023C7.75171 33.8976 8.08902 34.2192 8.49474 34.4293C8.90046 34.6395 9.35773 34.7295 9.81284 34.6889C10.3213 34.6441 10.9544 34.5809 11.7069 34.4925C12.0345 34.4552 12.3369 34.2988 12.5566 34.0529C12.7762 33.8071 12.8978 33.4891 12.8981 33.1594V23.0928" fill="currentColor"/>
<path d="M12.839 39.3598C15.672 41.4207 19.02 42.6578 22.5124 42.9341C26.0049 43.2104 29.5057 42.5153 32.6276 40.9255C35.7495 39.3357 38.3707 36.9132 40.2013 33.9262C42.0319 30.9391 43.0005 27.5039 43 24.0005C43 23.5632 42.9796 23.1308 42.9504 22.7007C36.0118 33.0487 23.2004 37.8865 12.8389 39.3601" fill="currentColor"/>
</svg>
