<svg width="168" height="43" viewBox="0 0 168 43" fill="none" xmlns="http://www.w3.org/2000/svg">
<rect x="0.779053" y="0.723633" width="166.721" height="40.9394" rx="3.5" fill="white"/>
<path d="M13.6091 25.6934V16.7754H16.5981C17.5921 16.7754 18.3574 17.0227 18.8941 17.5174C19.4307 18.012 19.6991 18.6957 19.6991 19.5684C19.6991 20.4317 19.4307 21.1107 18.8941 21.6054C18.3574 22.0954 17.5921 22.3404 16.5981 22.3404H14.9531V25.6934H13.6091ZM14.9531 21.1784H16.5981C17.1674 21.1784 17.5991 21.0314 17.8931 20.7374C18.1871 20.4434 18.3341 20.0537 18.3341 19.5684C18.3341 19.0784 18.1871 18.6817 17.8931 18.3784C17.5991 18.075 17.1674 17.9234 16.5981 17.9234H14.9531V21.1784ZM23.8441 25.8754C23.2327 25.8754 22.6844 25.7424 22.1991 25.4764C21.7184 25.2104 21.3381 24.8137 21.0581 24.2864C20.7781 23.759 20.6381 23.108 20.6381 22.3334C20.6381 21.5447 20.7781 20.889 21.0581 20.3664C21.3381 19.839 21.7184 19.4424 22.1991 19.1764C22.6844 18.9104 23.2327 18.7774 23.8441 18.7774C24.4461 18.7774 24.9874 18.9104 25.4681 19.1764C25.9487 19.4424 26.3267 19.839 26.6021 20.3664C26.8821 20.889 27.0221 21.5447 27.0221 22.3334C27.0221 23.108 26.8821 23.759 26.6021 24.2864C26.3267 24.8137 25.9487 25.2104 25.4681 25.4764C24.9874 25.7424 24.4461 25.8754 23.8441 25.8754ZM23.8021 24.7134C24.1894 24.7134 24.5231 24.62 24.8031 24.4334C25.0877 24.2467 25.3047 23.976 25.4541 23.6214C25.6081 23.262 25.6851 22.8327 25.6851 22.3334C25.6851 21.568 25.5287 20.9754 25.2161 20.5554C24.9081 20.1354 24.4624 19.9254 23.8791 19.9254C23.4871 19.9254 23.1487 20.021 22.8641 20.2124C22.5841 20.399 22.3671 20.672 22.2131 21.0314C22.0637 21.386 21.9891 21.82 21.9891 22.3334C21.9891 23.0847 22.1454 23.6704 22.4581 24.0904C22.7707 24.5057 23.2187 24.7134 23.8021 24.7134ZM27.6777 18.9594H29.0637L30.6667 24.3634H30.5197L32.0667 19.3024H33.2217L34.7617 24.3774H34.6217L36.2247 18.9594H37.5547L35.3427 25.6934H34.0407L32.5147 20.9334H32.7177L31.2127 25.6934H29.9107L27.6777 18.9594ZM41.3266 25.8754C40.748 25.8754 40.2253 25.726 39.7586 25.4274C39.292 25.1287 38.921 24.7134 38.6456 24.1814C38.375 23.6494 38.2396 23.0334 38.2396 22.3334C38.2396 21.5914 38.375 20.9567 38.6456 20.4294C38.9163 19.8974 39.285 19.489 39.7516 19.2044C40.2183 18.9197 40.7433 18.7774 41.3266 18.7774C41.8493 18.7774 42.2973 18.8847 42.6706 19.0994C43.044 19.3094 43.345 19.594 43.5736 19.9534C43.8023 20.308 43.9586 20.7117 44.0426 21.1644C44.1313 21.617 44.1476 22.0837 44.0916 22.5644H39.3036V21.7944H43.1816L42.8596 22.0044C42.8736 21.7524 42.8596 21.5004 42.8176 21.2484C42.7803 20.9964 42.7056 20.7654 42.5936 20.5554C42.4816 20.3407 42.323 20.1704 42.1176 20.0444C41.917 19.9137 41.6603 19.8484 41.3476 19.8484C40.9556 19.8484 40.6266 19.9464 40.3606 20.1424C40.0993 20.3384 39.901 20.602 39.7656 20.9334C39.6303 21.26 39.5626 21.6194 39.5626 22.0114V22.5504C39.5626 22.9844 39.628 23.3694 39.7586 23.7054C39.8893 24.0414 40.083 24.3074 40.3396 24.5034C40.601 24.6947 40.93 24.7904 41.3266 24.7904C41.714 24.7904 42.0336 24.6994 42.2856 24.5174C42.5423 24.3354 42.701 24.0624 42.7616 23.6984H44.1196C44.0496 24.137 43.8886 24.5197 43.6366 24.8464C43.3846 25.173 43.0603 25.4274 42.6636 25.6094C42.2716 25.7867 41.826 25.8754 41.3266 25.8754ZM45.9487 25.6934V18.9384H47.2787V25.6934H45.9487ZM46.9147 22.6834C46.9147 21.82 47.0034 21.1037 47.1807 20.5344C47.3627 19.9604 47.6147 19.5334 47.9367 19.2534C48.2634 18.9734 48.6461 18.8334 49.0847 18.8334C49.2154 18.8334 49.3367 18.8427 49.4487 18.8614C49.5654 18.88 49.6797 18.9057 49.7917 18.9384L49.7427 20.2614C49.6167 20.2287 49.4791 20.2007 49.3297 20.1774C49.1851 20.1494 49.0521 20.1354 48.9307 20.1354C48.5481 20.1354 48.2354 20.238 47.9927 20.4434C47.7501 20.644 47.5704 20.9357 47.4537 21.3184C47.3371 21.6964 47.2787 22.1514 47.2787 22.6834H46.9147ZM53.3501 25.8754C52.7714 25.8754 52.2487 25.726 51.7821 25.4274C51.3154 25.1287 50.9444 24.7134 50.6691 24.1814C50.3984 23.6494 50.2631 23.0334 50.2631 22.3334C50.2631 21.5914 50.3984 20.9567 50.6691 20.4294C50.9397 19.8974 51.3084 19.489 51.7751 19.2044C52.2417 18.9197 52.7667 18.7774 53.3501 18.7774C53.8727 18.7774 54.3207 18.8847 54.6941 19.0994C55.0674 19.3094 55.3684 19.594 55.5971 19.9534C55.8257 20.308 55.9821 20.7117 56.0661 21.1644C56.1547 21.617 56.1711 22.0837 56.1151 22.5644H51.3271V21.7944H55.2051L54.8831 22.0044C54.8971 21.7524 54.8831 21.5004 54.8411 21.2484C54.8037 20.9964 54.7291 20.7654 54.6171 20.5554C54.5051 20.3407 54.3464 20.1704 54.1411 20.0444C53.9404 19.9137 53.6837 19.8484 53.3711 19.8484C52.9791 19.8484 52.6501 19.9464 52.3841 20.1424C52.1227 20.3384 51.9244 20.602 51.7891 20.9334C51.6537 21.26 51.5861 21.6194 51.5861 22.0114V22.5504C51.5861 22.9844 51.6514 23.3694 51.7821 23.7054C51.9127 24.0414 52.1064 24.3074 52.3631 24.5034C52.6244 24.6947 52.9534 24.7904 53.3501 24.7904C53.7374 24.7904 54.0571 24.6994 54.3091 24.5174C54.5657 24.3354 54.7244 24.0624 54.7851 23.6984H56.1431C56.0731 24.137 55.9121 24.5197 55.6601 24.8464C55.4081 25.173 55.0837 25.4274 54.6871 25.6094C54.2951 25.7867 53.8494 25.8754 53.3501 25.8754ZM60.4152 25.8754C59.8645 25.8754 59.3582 25.7284 58.8962 25.4344C58.4342 25.1357 58.0655 24.7204 57.7902 24.1884C57.5195 23.6517 57.3842 23.0217 57.3842 22.2984C57.3842 21.5797 57.5172 20.9567 57.7832 20.4294C58.0538 19.902 58.4108 19.496 58.8542 19.2114C59.2975 18.922 59.7898 18.7774 60.3312 18.7774C60.8258 18.7774 61.2575 18.8987 61.6262 19.1414C61.9948 19.3794 62.2795 19.727 62.4802 20.1844C62.6855 20.6417 62.7882 21.1994 62.7882 21.8574H62.3262C62.3262 21.4514 62.2445 21.1084 62.0812 20.8284C61.9178 20.5437 61.7055 20.329 61.4442 20.1844C61.1828 20.0397 60.9028 19.9674 60.6042 19.9674C60.2542 19.9674 59.9368 20.063 59.6522 20.2544C59.3722 20.441 59.1482 20.7094 58.9802 21.0594C58.8168 21.4047 58.7352 21.8177 58.7352 22.2984C58.7352 22.7837 58.8168 23.206 58.9802 23.5654C59.1482 23.92 59.3722 24.193 59.6522 24.3844C59.9368 24.5757 60.2518 24.6714 60.5972 24.6714C60.8818 24.6714 61.1548 24.5967 61.4162 24.4474C61.6822 24.2934 61.8992 24.074 62.0672 23.7894C62.2398 23.5047 62.3262 23.1664 62.3262 22.7744H62.7882C62.7882 23.4464 62.6808 24.0134 62.4662 24.4754C62.2562 24.9374 61.9715 25.2874 61.6122 25.5254C61.2528 25.7587 60.8538 25.8754 60.4152 25.8754ZM62.5572 25.6934L62.3262 24.0764V16.1244H63.6632V25.6934H62.5572ZM72.553 25.8754C72.1144 25.8754 71.7154 25.7587 71.356 25.5254C71.0014 25.2874 70.7167 24.9374 70.502 24.4754C70.292 24.0134 70.187 23.4464 70.187 22.7744H70.642C70.642 23.1664 70.726 23.5047 70.894 23.7894C71.0667 24.074 71.286 24.2934 71.552 24.4474C71.818 24.5967 72.0957 24.6714 72.385 24.6714C72.7304 24.6714 73.0407 24.5757 73.316 24.3844C73.596 24.193 73.8177 23.92 73.981 23.5654C74.149 23.206 74.233 22.7837 74.233 22.2984C74.233 21.8177 74.1514 21.4047 73.988 21.0594C73.8247 20.7094 73.603 20.441 73.323 20.2544C73.043 20.063 72.7257 19.9674 72.371 19.9674C72.0724 19.9674 71.79 20.0397 71.524 20.1844C71.2627 20.329 71.0504 20.5437 70.887 20.8284C70.7237 21.1084 70.642 21.4514 70.642 21.8574H70.187C70.187 21.1994 70.2897 20.6417 70.495 20.1844C70.7004 19.727 70.985 19.3794 71.349 19.1414C71.7177 18.8987 72.1494 18.7774 72.644 18.7774C73.1807 18.7774 73.6707 18.922 74.114 19.2114C74.562 19.496 74.919 19.902 75.185 20.4294C75.4557 20.9567 75.591 21.5797 75.591 22.2984C75.591 23.0217 75.4534 23.6517 75.178 24.1884C74.9027 24.7204 74.534 25.1357 74.072 25.4344C73.6147 25.7284 73.1084 25.8754 72.553 25.8754ZM69.312 25.6934V16.1244H70.642V24.0764L70.215 25.6934H69.312ZM76.4129 18.9594H77.9039L79.9339 24.5314H79.6609L81.2919 18.9594H82.6499L80.0949 26.9884C79.8616 27.7164 79.5606 28.26 79.1919 28.6194C78.8279 28.9834 78.3706 29.1654 77.8199 29.1654C77.5119 29.1654 77.2156 29.1257 76.9309 29.0464C76.6509 28.967 76.3639 28.8504 76.0699 28.6964V27.4994C76.3219 27.6767 76.5646 27.805 76.7979 27.8844C77.0312 27.9637 77.2739 28.0034 77.5259 28.0034C77.7779 28.0034 77.9926 27.9264 78.1699 27.7724C78.3519 27.623 78.5036 27.4224 78.6249 27.1704C78.7509 26.923 78.8582 26.6524 78.9469 26.3584L79.1499 25.6934L76.4129 18.9594Z" fill="#080F5B"/>
<path d="M101.913 27.6121H92.7886C92.6781 27.6121 92.5697 27.5811 92.476 27.5224C92.3823 27.4638 92.307 27.3799 92.2587 27.2805C92.2105 27.181 92.1912 27.07 92.2031 26.9601C92.215 26.8502 92.2576 26.7458 92.3261 26.659L94.909 23.3774C95.0298 23.2237 95.1009 23.037 95.1129 22.8419C95.1249 22.6469 95.0772 22.4528 94.9762 22.2855L91.4387 16.4405C91.3375 16.2741 91.2824 16.0838 91.2792 15.8891C91.276 15.6944 91.3246 15.5023 91.4202 15.3326C91.5158 15.163 91.6549 15.0218 91.8231 14.9237C91.9913 14.8256 92.1826 14.7741 92.3774 14.7744H100.7C100.808 14.7745 100.913 14.8042 101.006 14.8604C101.098 14.9165 101.173 14.9969 101.222 15.0928C101.272 15.1887 101.294 15.2964 101.286 15.404C101.279 15.5117 101.242 15.6152 101.18 15.7033L99.0064 18.7661C98.8982 18.9187 98.837 19.0994 98.83 19.2862C98.823 19.4731 98.8707 19.6579 98.9671 19.818L102.756 26.1037C102.847 26.2539 102.896 26.4255 102.899 26.601C102.902 26.7766 102.859 26.9498 102.773 27.1031C102.688 27.2563 102.563 27.3842 102.412 27.4736C102.261 27.563 102.089 27.6108 101.913 27.6121Z" fill="#4743C5"/>
<g clip-path="url(#clip0_91_717)">
<path d="M108.973 25.6836C108.551 25.3718 108.197 24.9763 107.934 24.5216C107.671 24.067 107.505 23.5631 107.446 23.0412H109.51C109.632 23.6038 109.955 24.1027 110.418 24.445C110.955 24.7999 111.592 24.9735 112.235 24.9404C112.762 24.9629 113.285 24.834 113.742 24.5689C113.917 24.4655 114.061 24.3171 114.159 24.1392C114.257 23.9613 114.305 23.7604 114.299 23.5573C114.302 23.4058 114.272 23.2553 114.212 23.1163C114.151 22.9774 114.061 22.8532 113.948 22.7522C113.699 22.5299 113.403 22.3675 113.081 22.2774C112.73 22.2774 112.256 22.0503 111.657 21.9264C110.997 21.8187 110.347 21.653 109.716 21.431C109.222 21.2789 108.779 20.9931 108.436 20.6052C108.062 20.1549 107.87 19.5801 107.9 18.995C107.873 18.5656 107.958 18.1365 108.146 17.7495C108.334 17.3625 108.619 17.0307 108.973 16.7862C109.808 16.2416 110.784 15.9517 111.781 15.9517C112.778 15.9517 113.753 16.2416 114.588 16.7862C115.356 17.3957 115.865 18.2733 116.013 19.2428H114.134C114.022 18.7199 113.711 18.2611 113.267 17.9629C112.802 17.6766 112.264 17.533 111.719 17.55C111.242 17.5204 110.767 17.6356 110.356 17.8803C110.204 17.973 110.079 18.1034 109.992 18.259C109.905 18.4145 109.86 18.5899 109.861 18.768C109.853 18.9063 109.878 19.0445 109.936 19.1704C109.994 19.2964 110.081 19.4063 110.191 19.4905C110.421 19.6923 110.698 19.8342 110.996 19.9034C111.444 20.0337 111.899 20.1372 112.359 20.2131C113.058 20.3357 113.748 20.5082 114.423 20.7292C114.949 20.8869 115.42 21.187 115.786 21.5962C116.179 22.0698 116.378 22.6746 116.343 23.289C116.357 23.7364 116.265 24.1807 116.075 24.586C115.885 24.9913 115.602 25.3462 115.249 25.6217C114.387 26.2438 113.337 26.5499 112.276 26.4887C111.118 26.5737 109.962 26.292 108.973 25.6836Z" fill="#010211"/>
<path d="M117.231 14.4738C117.106 14.3579 117.006 14.2173 116.938 14.061C116.87 13.9048 116.834 13.736 116.834 13.5655C116.834 13.395 116.87 13.2262 116.938 13.0699C117.006 12.9136 117.106 12.7731 117.231 12.6572C117.489 12.4169 117.828 12.284 118.181 12.2856C118.54 12.2764 118.889 12.41 119.151 12.6572C119.276 12.7731 119.376 12.9136 119.444 13.0699C119.512 13.2262 119.547 13.395 119.547 13.5655C119.547 13.736 119.512 13.9048 119.444 14.061C119.376 14.2173 119.276 14.3579 119.151 14.4738C118.889 14.721 118.54 14.8545 118.181 14.8454C117.828 14.847 117.489 14.7141 117.231 14.4738ZM119.295 26.4471H117.231V16.2698H119.295V26.4471Z" fill="#010211"/>
<path d="M120.513 26.3857V16.2084H122.577V17.6328C122.95 17.1326 123.412 16.7056 123.94 16.3734C124.411 16.1276 124.936 16.0001 125.467 16.0018C126.096 15.9896 126.716 16.1466 127.263 16.4561C127.505 16.5961 127.715 16.7834 127.882 17.0069C128.049 17.2305 128.168 17.4856 128.234 17.7566C128.522 17.1939 128.969 16.7279 129.52 16.4161C130.07 16.1043 130.699 15.9603 131.33 16.0018C131.799 15.9673 132.269 16.0363 132.708 16.204C133.147 16.3716 133.544 16.634 133.87 16.9722C134.476 17.762 134.777 18.7444 134.716 19.7384V26.3857H132.651V20.0687C132.704 19.4462 132.536 18.825 132.177 18.3139C132.019 18.1122 131.814 17.9522 131.58 17.8479C131.346 17.7435 131.09 17.698 130.835 17.7153C130.566 17.7014 130.298 17.7459 130.049 17.8457C129.799 17.9455 129.575 18.0982 129.39 18.2933C129.083 18.6401 128.87 19.0593 128.77 19.5113C128.641 20.1357 128.585 20.7731 128.605 21.4105V26.3857H126.541V20.0687C126.582 19.4443 126.407 18.8246 126.046 18.3139C125.879 18.1169 125.67 17.9607 125.434 17.8569C125.198 17.7532 124.941 17.7047 124.683 17.7153C124.405 17.7058 124.129 17.7625 123.878 17.8805C123.635 17.9841 123.422 18.1474 123.259 18.3553C122.967 18.6778 122.762 19.0681 122.66 19.4906C122.521 20.1208 122.459 20.7654 122.474 21.4105V26.3857H120.513Z" fill="#010211"/>
<path d="M143.385 16.6829C144.085 17.1342 144.637 17.7799 144.975 18.5408C145.342 19.4132 145.531 20.3502 145.531 21.2968C145.531 22.2433 145.342 23.1804 144.975 24.0527C144.632 24.8162 144.082 25.4674 143.385 25.9313C142.681 26.3748 141.864 26.6043 141.032 26.5919C140.442 26.6061 139.856 26.4861 139.318 26.241C138.757 25.9292 138.277 25.491 137.915 24.9611V30.1632H135.85V16.2082H137.915V17.6326C138.285 17.1149 138.764 16.6849 139.318 16.3732C139.851 16.1113 140.439 15.9838 141.032 16.0016C141.867 15.9854 142.688 16.223 143.385 16.6829ZM139.153 18.2105C138.704 18.5314 138.348 18.966 138.121 19.4698C137.849 20.0359 137.715 20.6584 137.729 21.2864C137.717 21.9209 137.851 22.5496 138.121 23.1237C138.336 23.6344 138.695 24.0717 139.153 24.383C139.597 24.6864 140.123 24.8451 140.66 24.8372C141.058 24.8469 141.453 24.7621 141.812 24.5899C142.17 24.4176 142.483 24.1628 142.725 23.8462C143.222 23.0889 143.487 22.2027 143.487 21.2968C143.487 20.3908 143.222 19.5046 142.725 18.7473C142.483 18.4307 142.17 18.1759 141.812 18.0036C141.453 17.8314 141.058 17.7467 140.66 17.7564C140.124 17.7575 139.601 17.9153 139.153 18.2105Z" fill="#010211"/>
<path d="M148.836 26.3855C148.192 26.436 147.551 26.2446 147.04 25.8487C146.82 25.5957 146.653 25.3006 146.55 24.9812C146.447 24.6618 146.41 24.3248 146.442 23.9907V12.4097H148.506V23.454C148.481 23.7749 148.545 24.0966 148.692 24.383C148.8 24.4875 148.931 24.5659 149.074 24.6124C149.217 24.6589 149.369 24.6722 149.518 24.6514H150.096V26.3442L148.836 26.3855Z" fill="#010211"/>
<path d="M150.673 26.3854V16.208H152.737V17.5085C153.093 17.0124 153.569 16.6147 154.12 16.3524C154.666 16.1115 155.258 15.9918 155.854 16.0015H156.04V18.0659H155.503C155.157 18.0436 154.81 18.0926 154.483 18.2098C154.156 18.327 153.857 18.5099 153.604 18.7472C153.282 19.1147 153.039 19.5443 152.89 20.0094C152.741 20.4746 152.689 20.9654 152.737 21.4515V26.4679L150.673 26.3854Z" fill="#010211"/>
</g>
<rect x="0.779053" y="0.723633" width="166.721" height="40.9394" rx="3.5" stroke="#4743C5"/>
<defs>
<clipPath id="clip0_91_717">
<rect width="48.5539" height="17.9394" fill="white" transform="translate(107.446 12.2236)"/>
</clipPath>
</defs>
</svg>
